<svg viewBox="0 0 160 160" xmlns="http://www.w3.org/2000/svg" xmlns:xlink="http://www.w3.org/1999/xlink">
    <g transform="matrix(1.650506 0 0 1.650506 1453.201439 -107.284012)">
        <linearGradient id="b" gradientUnits="userSpaceOnUse" x1="-863.72858" x2="-858.22321" y1="97.588837"
            y2="89.665787">
            <stop offset="0" stop-color="#ca8231" />
            <stop offset="1" stop-color="#fb984d" />
        </linearGradient>
        <radialGradient id="c" cx="-844.40564" cy="122.50025"
            gradientTransform="matrix(-.24517112 .98197283 -1.5171415 -.3787878 -847.11888 992.87803)"
            gradientUnits="userSpaceOnUse" r="31.494726">
            <stop offset="0" stop-color="#d4874f" />
            <stop offset="1" stop-color="#eba97a" />
        </radialGradient>
        <linearGradient id="d" gradientUnits="userSpaceOnUse" x1="-842.101771" x2="-855.321921" y1="113.500327"
            y2="106.379177">
            <stop offset="0" stop-color="#523321" />
            <stop offset="1" stop-color="#d47b3c" />
        </linearGradient>
        <linearGradient id="e" gradientUnits="userSpaceOnUse" x1="-866.03174" x2="-866.60504" y1="121.46119"
            y2="127.63977">
            <stop offset="0" stop-color="#ca8231" />
            <stop offset="1" stop-color="#c77439" />
        </linearGradient>
        <linearGradient id="f" gradientUnits="userSpaceOnUse" x1="-824.51703" x2="-809.62506" y1="84.329185"
            y2="83.680367">
            <stop offset="0" stop-color="#fb984d" />
            <stop offset="1" stop-color="#523321" />
        </linearGradient>
        <path
            d="m-834.0354 75.482513c-15.46487-.06239-30.05587 11.044045-34.47208 25.811987-1.84682 5.79564-1.95006 12.08316-.99108 18.05335 1.48873 7.82756 5.57985 15.12167 11.61124 20.35266 10.2371 9.81339 26.48762 12.22476 39.36534 6.52722 12.13853-5.1559 21.04356-17.18889 22.1256-30.37379 1.52448-14.33494-6.2539-29.099772-18.95054-35.932372-5.68889-3.153976-12.18317-4.727458-18.68848-4.439055z"
            fill="url(#b)" />
        <path
            d="m-809.62869 83.770408c1.96595 39.236372-38.35303 47.686452-57.53747 42.930372 8.94017 23.15039 40.99297 32.40124 60.66789 12.1917 13.65267-14.02366 16.03177-38.63882-3.13042-55.122072z"
            fill="url(#d)" />
        <path
            d="m-867.28643 126.697c-1.10416-2.18602-1.61014-4.77133-1.99468-6.95735l5.77854.9761c.57242 3.01536 2.15384 4.86447 3.09004 7.04824-1.85853.15511-4.35254-.39065-6.8739-1.06699z"
            fill="url(#e)" fill-rule="evenodd" />
        <ellipse cx="-833.15118" cy="111.77588" fill="url(#c)" rx="31.494726" ry="31.04159" />
        <ellipse cx="-832.64349" cy="112.08342" fill="none" rx="28.216059" ry="27.414209" stroke="#7f5130"
            stroke-linejoin="round" stroke-miterlimit="5.1" stroke-width=".979182" />
        <path
            d="m-809.46087 91.292868c-4.84936-4.37339-8.52652-8.625221-20.05818-10.272564l4.04189-4.800286c3.17304.817026 7.77102 1.174167 15.93031 7.606443z"
            fill="url(#f)" fill-rule="evenodd" />
        <ellipse cx="-832.97882" cy="111.88448" fill="none" rx="31.560734" ry="30.982956" stroke="#935600"
            stroke-linejoin="round" stroke-miterlimit="5.1" stroke-width=".49719" />
    </g>
</svg>